<?xml version="1.0" standalone="no"?>
<!DOCTYPE svg PUBLIC "-//W3C//DTD SVG 20010904//EN"
 "http://www.w3.org/TR/2001/REC-SVG-20010904/DTD/svg10.dtd">
<svg version="1.0" xmlns="http://www.w3.org/2000/svg"
 width="426.000000pt" height="426.000000pt" viewBox="0 0 426.000000 426.000000"
 preserveAspectRatio="xMidYMid meet">
<metadata>
Created by potrace 1.11, written by Peter Selinger 2001-2013
</metadata>
<g transform="translate(0.000000,426.000000) scale(0.100000,-0.100000)"
fill="#000000" stroke="none">
<path d="M3352 3974 c-40 -7 -88 -17 -105 -23 -18 -6 -45 -13 -62 -16 -16 -2
-39 -7 -50 -9 -11 -2 -81 -16 -155 -31 -74 -15 -142 -28 -150 -30 -8 -2 -105
-22 -215 -44 -313 -63 -598 -121 -620 -126 -11 -3 -99 -21 -195 -40 -96 -19
-233 -47 -305 -63 l-130 -27 -3 -1223 c-1 -746 -6 -1222 -11 -1222 -6 0 -22 5
-37 10 -66 25 -227 31 -319 11 -122 -27 -293 -120 -392 -213 -61 -58 -136
-173 -152 -233 -17 -63 -13 -164 8 -210 108 -232 529 -223 833 19 103 82 189
202 217 301 7 28 11 370 11 1141 0 865 3 1104 13 1118 9 12 53 24 147 42 74
13 143 27 152 30 9 3 25 6 35 9 10 2 101 20 203 40 102 20 192 38 200 40 38
10 161 35 196 41 21 3 71 12 109 21 39 8 81 17 95 19 14 3 33 7 42 10 10 3 30
7 45 10 16 3 87 16 158 31 72 14 141 27 155 29 14 3 33 7 42 10 15 4 25 7 76
18 82 18 101 17 111 -3 11 -21 17 -1792 5 -1803 -3 -3 -28 3 -56 14 -40 15
-76 19 -152 19 -88 -1 -119 -5 -196 -26 -47 -12 -153 -60 -212 -96 -64 -39
-154 -118 -207 -183 -78 -96 -113 -257 -75 -354 23 -61 88 -122 155 -147 71
-25 72 -26 157 -30 84 -5 152 6 260 41 211 69 410 254 460 427 3 12 7 626 8
1364 2 1016 0 1342 -9 1345 -7 3 -45 -1 -85 -8z"/>
</g>
</svg>
